# Blender v2.75 (sub 0) OBJ File: ''
# www.blender.org
o Torus
v -1.400000 0.000000 0.000000
v -1.346410 0.200000 0.000000
v -1.200000 0.346410 0.000000
v -1.000000 0.400000 0.000000
v -0.800000 0.346410 0.000000
v -0.653590 0.200000 0.000000
v -0.600000 0.000000 0.000000
v -0.653590 -0.200000 0.000000
v -0.800000 -0.346410 0.000000
v -1.000000 -0.400000 0.000000
v -1.200000 -0.346410 0.000000
v -1.346410 -0.200000 0.000000
v -0.989949 0.000000 0.989950
v -0.952056 0.200000 0.952056
v -0.848528 0.346410 0.848528
v -0.707107 0.400000 0.707107
v -0.565685 0.346410 0.565685
v -0.462158 0.200000 0.462158
v -0.424264 0.000000 0.424264
v -0.462158 -0.200000 0.462158
v -0.565685 -0.346410 0.565685
v -0.707107 -0.400000 0.707107
v -0.848528 -0.346410 0.848528
v -0.952056 -0.200000 0.952056
v -0.000000 0.000000 1.400000
v -0.000000 0.200000 1.346410
v -0.000000 0.346410 1.200000
v -0.000000 0.400000 1.000000
v -0.000000 0.346410 0.800000
v -0.000000 0.200000 0.653590
v -0.000000 0.000000 0.600000
v -0.000000 -0.200000 0.653590
v -0.000000 -0.346410 0.800000
v -0.000000 -0.400000 1.000000
v -0.000000 -0.346410 1.200000
v -0.000000 -0.200000 1.346410
v 0.989950 0.000000 0.989949
v 0.952056 0.200000 0.952055
v 0.848528 0.346410 0.848528
v 0.707107 0.400000 0.707107
v 0.565686 0.346410 0.565685
v 0.462158 0.200000 0.462158
v 0.424264 0.000000 0.424264
v 0.462158 -0.200000 0.462158
v 0.565686 -0.346410 0.565685
v 0.707107 -0.400000 0.707107
v 0.848528 -0.346410 0.848528
v 0.952056 -0.200000 0.952055
v 1.400000 0.000000 0.000000
v 1.346410 0.200000 0.000000
v 1.200000 0.346410 0.000000
v 1.000000 0.400000 0.000000
v 0.800000 0.346410 0.000000
v 0.653590 0.200000 0.000000
v 0.600000 0.000000 0.000000
v 0.653590 -0.200000 0.000000
v 0.800000 -0.346410 0.000000
v 1.000000 -0.400000 0.000000
v 1.200000 -0.346410 0.000000
v 1.346410 -0.200000 0.000000
v 0.989950 0.000000 -0.989949
v 0.952056 0.200000 -0.952055
v 0.848528 0.346410 -0.848528
v 0.707107 0.400000 -0.707107
v 0.565686 0.346410 -0.565685
v 0.462158 0.200000 -0.462158
v 0.424264 0.000000 -0.424264
v 0.462158 -0.200000 -0.462158
v 0.565686 -0.346410 -0.565685
v 0.707107 -0.400000 -0.707107
v 0.848528 -0.346410 -0.848528
v 0.952056 -0.200000 -0.952055
v -0.000000 0.000000 -1.400000
v -0.000000 0.200000 -1.346410
v -0.000000 0.346410 -1.200000
v -0.000000 0.400000 -1.000000
v -0.000000 0.346410 -0.800000
v -0.000000 0.200000 -0.653590
v -0.000000 0.000000 -0.600000
v -0.000000 -0.200000 -0.653590
v -0.000000 -0.346410 -0.800000
v -0.000000 -0.400000 -1.000000
v -0.000000 -0.346410 -1.200000
v -0.000000 -0.200000 -1.346410
v -0.989949 0.000000 -0.989950
v -0.952055 0.200000 -0.952056
v -0.848528 0.346410 -0.848529
v -0.707106 0.400000 -0.707107
v -0.565685 0.346410 -0.565686
v -0.462158 0.200000 -0.462158
v -0.424264 0.000000 -0.424264
v -0.462158 -0.200000 -0.462158
v -0.565685 -0.346410 -0.565686
v -0.707106 -0.400000 -0.707107
v -0.848528 -0.346410 -0.848529
v -0.952055 -0.200000 -0.952056
vn -0.896800 0.240300 0.371500
vn -0.678600 0.678600 0.281100
vn -0.257300 0.960400 0.106600
vn 0.257300 0.960400 -0.106600
vn 0.678600 0.678600 -0.281100
vn 0.896800 0.240300 -0.371500
vn 0.896800 -0.240300 -0.371500
vn 0.678600 -0.678600 -0.281100
vn 0.257300 -0.960400 -0.106600
vn -0.257300 -0.960400 0.106600
vn -0.678600 -0.678600 0.281100
vn -0.896800 -0.240300 0.371500
vn -0.371500 0.240300 0.896800
vn -0.281100 0.678600 0.678600
vn -0.106600 0.960400 0.257300
vn 0.106600 0.960400 -0.257300
vn 0.281100 0.678600 -0.678600
vn 0.371500 0.240300 -0.896800
vn 0.371500 -0.240300 -0.896800
vn 0.281100 -0.678600 -0.678600
vn 0.106600 -0.960400 -0.257300
vn -0.106600 -0.960400 0.257300
vn -0.281100 -0.678600 0.678600
vn -0.371500 -0.240300 0.896800
vn 0.371500 0.240300 0.896800
vn 0.281100 0.678600 0.678600
vn 0.106600 0.960400 0.257300
vn -0.106600 0.960400 -0.257300
vn -0.281100 0.678600 -0.678600
vn -0.371500 0.240300 -0.896800
vn -0.371500 -0.240300 -0.896800
vn -0.281100 -0.678600 -0.678600
vn -0.106600 -0.960400 -0.257300
vn 0.106600 -0.960400 0.257300
vn 0.281100 -0.678600 0.678600
vn 0.371500 -0.240300 0.896800
vn 0.896800 0.240300 0.371500
vn 0.678600 0.678600 0.281100
vn 0.257300 0.960400 0.106600
vn -0.257300 0.960400 -0.106600
vn -0.678600 0.678600 -0.281100
vn -0.896800 0.240300 -0.371500
vn -0.896800 -0.240300 -0.371500
vn -0.678600 -0.678600 -0.281100
vn -0.257300 -0.960400 -0.106600
vn 0.257300 -0.960400 0.106600
vn 0.678600 -0.678600 0.281100
vn 0.896800 -0.240300 0.371500
s off
f 1//1 13//1 14//1
f 2//2 14//2 15//2
f 15//3 16//3 4//3
f 16//4 17//4 5//4
f 17//5 18//5 6//5
f 18//6 19//6 7//6
f 19//7 20//7 8//7
f 20//8 21//8 9//8
f 21//9 22//9 10//9
f 22//10 23//10 11//10
f 23//11 24//11 12//11
f 1//12 12//12 24//12
f 13//13 25//13 26//13
f 26//14 27//14 15//14
f 27//15 28//15 16//15
f 28//16 29//16 17//16
f 17//17 29//17 30//17
f 30//18 31//18 19//18
f 31//19 32//19 20//19
f 32//20 33//20 21//20
f 21//21 33//21 34//21
f 22//22 34//22 35//22
f 35//23 36//23 24//23
f 36//24 25//24 13//24
f 37//25 38//25 26//25
f 26//26 38//26 39//26
f 39//27 40//27 28//27
f 40//28 41//28 29//28
f 41//29 42//29 30//29
f 42//30 43//30 31//30
f 31//31 43//31 44//31
f 44//32 45//32 33//32
f 45//33 46//33 34//33
f 46//34 47//34 35//34
f 47//35 48//35 36//35
f 48//36 37//36 25//36
f 49//37 50//37 38//37
f 50//38 51//38 39//38
f 51//39 52//39 40//39
f 52//40 53//40 41//40
f 53//41 54//41 42//41
f 54//42 55//42 43//42
f 55//43 56//43 44//43
f 56//44 57//44 45//44
f 45//45 57//45 58//45
f 46//46 58//46 59//46
f 59//47 60//47 48//47
f 48//48 60//48 49//48
f 49//6 61//6 62//6
f 62//5 63//5 51//5
f 63//4 64//4 52//4
f 64//3 65//3 53//3
f 65//2 66//2 54//2
f 66//1 67//1 55//1
f 55//12 67//12 68//12
f 68//11 69//11 57//11
f 57//10 69//10 70//10
f 58//9 70//9 71//9
f 71//8 72//8 60//8
f 72//7 61//7 49//7
f 73//18 74//18 62//18
f 74//17 75//17 63//17
f 75//16 76//16 64//16
f 64//15 76//15 77//15
f 77//14 78//14 66//14
f 66//13 78//13 79//13
f 79//24 80//24 68//24
f 80//23 81//23 69//23
f 69//22 81//22 82//22
f 70//21 82//21 83//21
f 83//20 84//20 72//20
f 72//19 84//19 73//19
f 85//30 86//30 74//30
f 86//29 87//29 75//29
f 75//28 87//28 88//28
f 88//27 89//27 77//27
f 89//26 90//26 78//26
f 90//25 91//25 79//25
f 79//36 91//36 92//36
f 92//35 93//35 81//35
f 93//34 94//34 82//34
f 94//33 95//33 83//33
f 83//32 95//32 96//32
f 84//31 96//31 85//31
f 1//42 2//42 86//42
f 2//41 3//41 87//41
f 3//40 4//40 88//40
f 4//39 5//39 89//39
f 89//38 5//38 6//38
f 6//37 7//37 91//37
f 91//48 7//48 8//48
f 8//47 9//47 93//47
f 93//46 9//46 10//46
f 10//45 11//45 95//45
f 11//44 12//44 96//44
f 96//43 12//43 1//43
f 2//1 1//1 14//1
f 3//2 2//2 15//2
f 3//3 15//3 4//3
f 4//4 16//4 5//4
f 5//5 17//5 6//5
f 6//6 18//6 7//6
f 7//7 19//7 8//7
f 8//8 20//8 9//8
f 9//9 21//9 10//9
f 10//10 22//10 11//10
f 11//11 23//11 12//11
f 13//12 1//12 24//12
f 14//13 13//13 26//13
f 14//14 26//14 15//14
f 15//15 27//15 16//15
f 16//16 28//16 17//16
f 18//17 17//17 30//17
f 18//18 30//18 19//18
f 19//19 31//19 20//19
f 20//20 32//20 21//20
f 22//21 21//21 34//21
f 23//22 22//22 35//22
f 23//23 35//23 24//23
f 24//24 36//24 13//24
f 25//25 37//25 26//25
f 27//26 26//26 39//26
f 27//27 39//27 28//27
f 28//28 40//28 29//28
f 29//29 41//29 30//29
f 30//30 42//30 31//30
f 32//31 31//31 44//31
f 32//32 44//32 33//32
f 33//33 45//33 34//33
f 34//34 46//34 35//34
f 35//35 47//35 36//35
f 36//36 48//36 25//36
f 37//37 49//37 38//37
f 38//38 50//38 39//38
f 39//39 51//39 40//39
f 40//40 52//40 41//40
f 41//41 53//41 42//41
f 42//42 54//42 43//42
f 43//43 55//43 44//43
f 44//44 56//44 45//44
f 46//45 45//45 58//45
f 47//46 46//46 59//46
f 47//47 59//47 48//47
f 37//48 48//48 49//48
f 50//6 49//6 62//6
f 50//5 62//5 51//5
f 51//4 63//4 52//4
f 52//3 64//3 53//3
f 53//2 65//2 54//2
f 54//1 66//1 55//1
f 56//12 55//12 68//12
f 56//11 68//11 57//11
f 58//10 57//10 70//10
f 59//9 58//9 71//9
f 59//8 71//8 60//8
f 60//7 72//7 49//7
f 61//18 73//18 62//18
f 62//17 74//17 63//17
f 63//16 75//16 64//16
f 65//15 64//15 77//15
f 65//14 77//14 66//14
f 67//13 66//13 79//13
f 67//24 79//24 68//24
f 68//23 80//23 69//23
f 70//22 69//22 82//22
f 71//21 70//21 83//21
f 71//20 83//20 72//20
f 61//19 72//19 73//19
f 73//30 85//30 74//30
f 74//29 86//29 75//29
f 76//28 75//28 88//28
f 76//27 88//27 77//27
f 77//26 89//26 78//26
f 78//25 90//25 79//25
f 80//36 79//36 92//36
f 80//35 92//35 81//35
f 81//34 93//34 82//34
f 82//33 94//33 83//33
f 84//32 83//32 96//32
f 73//31 84//31 85//31
f 85//42 1//42 86//42
f 86//41 2//41 87//41
f 87//40 3//40 88//40
f 88//39 4//39 89//39
f 90//38 89//38 6//38
f 90//37 6//37 91//37
f 92//48 91//48 8//48
f 92//47 8//47 93//47
f 94//46 93//46 10//46
f 94//45 10//45 95//45
f 95//44 11//44 96//44
f 85//43 96//43 1//43
